<?xml version="1.0" encoding="UTF-8" standalone="no"?>
<!-- Created with Inkscape (http://www.inkscape.org/) -->

<svg
   xmlns:dc="http://purl.org/dc/elements/1.1/"
   xmlns:cc="http://creativecommons.org/ns#"
   xmlns:rdf="http://www.w3.org/1999/02/22-rdf-syntax-ns#"
   xmlns:svg="http://www.w3.org/2000/svg"
   xmlns="http://www.w3.org/2000/svg"
   xmlns:sodipodi="http://sodipodi.sourceforge.net/DTD/sodipodi-0.dtd"
   xmlns:inkscape="http://www.inkscape.org/namespaces/inkscape"
   version="1.1"
   id="svg3093"
   xml:space="preserve"
   width="666.66669"
   height="666.66669"
   viewBox="0 0 666.66669 666.66669"
   sodipodi:docname="dionsaur-2-publicdomainvectors.org.svg"
   inkscape:version="0.92.4 (5da689c313, 2019-01-14)"><metadata
     id="metadata3099"><rdf:RDF><cc:Work
         rdf:about=""><dc:format>image/svg+xml</dc:format><dc:type
           rdf:resource="http://purl.org/dc/dcmitype/StillImage" /><dc:title></dc:title></cc:Work></rdf:RDF></metadata><defs
     id="defs3097"><clipPath
       clipPathUnits="userSpaceOnUse"
       id="clipPath3109"><path
         d="M 0,500 H 500 V 0 H 0 Z"
         id="path3107"
         inkscape:connector-curvature="0" /></clipPath></defs><sodipodi:namedview
     pagecolor="#ffffff"
     bordercolor="#666666"
     borderopacity="1"
     objecttolerance="10"
     gridtolerance="10"
     guidetolerance="10"
     inkscape:pageopacity="0"
     inkscape:pageshadow="2"
     inkscape:window-width="1920"
     inkscape:window-height="1018"
     id="namedview3095"
     showgrid="false"
     inkscape:zoom="1.0811007"
     inkscape:cx="351.69493"
     inkscape:cy="327.68363"
     inkscape:window-x="-8"
     inkscape:window-y="-8"
     inkscape:window-maximized="1"
     inkscape:current-layer="g3101" /><g
     id="g3101"
     inkscape:groupmode="layer"
     inkscape:label="dionsaur-2-publicdomainvectors.org"
     transform="matrix(1.3333333,0,0,-1.3333333,0,666.66667)"><g
       id="g3103"><g
         id="g3105"
         clip-path="url(#clipPath3109)"><path
           d="m 485.79,207.151 -0.072,0.057 1.746,2.158 z m -8.202,-8.591 -2.16,-1.766 -0.355,0.449 c 0,0 1.109,0.846 2.216,1.694 1.061,0.892 2.12,1.787 2.12,1.787 l 0.263,-0.287 c 0,0 -1.042,-0.94 -2.084,-1.877 m -12.328,-8.002 c -1.275,-0.567 -2.548,-1.133 -2.548,-1.133 l -0.376,0.873 c 0,0 1.287,0.535 2.576,1.07 l 2.49,1.184 0.376,-0.723 c 0,0 -1.258,-0.635 -2.518,-1.271 m -13.995,-4.616 c -1.372,-0.252 -2.744,-0.505 -2.744,-0.505 l -0.221,1.291 c 0,0 1.378,0.218 2.755,0.437 1.347,0.272 2.697,0.543 2.697,0.543 l 0.269,-1.141 c 0,0 -1.378,-0.312 -2.756,-0.625 m -14.674,-1.527 h -2.789 l 0.019,1.666 c 0,0 1.395,-0.033 2.788,-0.066 1.376,0.007 2.753,0.015 2.753,0.015 l 0.053,-1.529 -2.824,-0.086 m -11.924,0.523 c 0,0 -1.401,0.153 -2.804,0.307 l -2.765,0.361 0.286,2.004 c 0,0 1.379,-0.213 2.756,-0.427 1.368,-0.184 2.734,-0.366 2.734,-0.366 z m -14.585,2.241 -5.448,1.199 0.513,2.242 5.426,-1.295 z m -14.3,3.472 -5.361,1.541 0.728,2.454 5.332,-1.635 z m -14.091,4.332 -5.227,1.946 1.003,2.629 5.193,-2.036 z m -13.678,5.51 -5.062,2.344 1.28,2.721 5.032,-2.407 z m -13.249,6.418 -4.932,2.604 1.506,2.812 4.9,-2.666 z m -12.914,7.027 -4.83,2.791 1.704,2.911 4.796,-2.85 z m -12.653,7.469 -4.744,2.93 1.875,3.004 4.716,-2.977 z m -12.427,7.811 -4.68,3.037 1.998,3.055 4.657,-3.071 z m -12.267,8.043 -4.636,3.101 2.103,3.119 4.612,-3.136 z m -12.159,8.177 -4.617,3.128 2.182,3.199 4.595,-3.163 z m -40.317,29.374 c 0,0 0.33,-0.112 0.827,-0.28 0.244,-0.083 0.533,-0.18 0.867,-0.31 0.328,-0.125 0.677,-0.258 1.027,-0.39 1.356,-0.542 2.667,-1.155 2.667,-1.155 l -1.708,-3.67 c 0,0 -1.217,0.563 -2.453,1.054 -0.303,0.114 -0.606,0.229 -0.889,0.335 -0.274,0.108 -0.565,0.205 -0.815,0.289 -0.495,0.167 -0.825,0.279 -0.825,0.279 z m 13.554,-6.64 4.694,-3.01 -2.155,-3.382 -4.702,2.999 z m 12.256,-8.118 4.596,-3.161 -2.22,-3.258 -4.62,3.125 z m -84.552,13.103 2.787,-0.092 2.699,-0.01 0.038,-4.128 -2.879,0.018 -2.787,0.099 z m 17.125,0.64 c 1.354,0.164 2.709,0.327 2.709,0.327 l 0.534,-4.13 c 0,0 -1.415,-0.168 -2.831,-0.337 -1.388,-0.136 -2.776,-0.273 -2.776,-0.273 l -0.411,4.132 c 0,0 1.388,0.141 2.775,0.281 m 17.213,2.347 0.523,-4.093 -5.53,-0.722 -0.527,4.106 z m 9.305,0.665 c 0,0 1.395,-0.005 2.789,-0.009 0.359,-0.011 0.735,-0.036 1.078,-0.052 0.346,-0.019 0.668,-0.035 0.945,-0.05 0.552,-0.03 0.921,-0.051 0.921,-0.051 l -0.329,-4.074 c 0,0 -0.327,0.017 -0.818,0.042 -0.246,0.013 -0.534,0.027 -0.841,0.043 -0.309,0.014 -0.63,0.038 -0.967,0.048 -1.395,0 -2.789,0.002 -2.789,0.002 z m -89.435,-44.425 c -0.293,0.308 -0.587,0.621 -0.884,0.933 -0.589,0.627 -1.188,1.26 -1.793,1.899 -1.177,1.305 -2.354,2.654 -3.537,4.041 -2.297,2.828 -4.613,5.808 -6.775,9.024 -4.382,6.39 -8.438,13.527 -11.889,21.243 -3.456,7.711 -6.435,15.941 -8.777,24.485 -2.358,8.539 -4.211,17.35 -5.538,26.236 -0.298,2.234 -0.595,4.467 -0.892,6.698 -0.261,2.222 -0.468,4.427 -0.703,6.635 l -0.172,1.654 -0.157,1.677 c -0.105,1.098 -0.209,2.195 -0.313,3.29 -0.228,2.188 -0.455,4.369 -0.68,6.541 -0.942,8.684 -2.031,17.212 -3.378,25.414 -1.357,8.199 -2.856,16.092 -4.653,23.484 -1.812,7.385 -3.806,14.3 -6.132,20.499 -2.326,6.194 -4.917,11.704 -7.83,16.197 -2.904,4.489 -6.16,7.938 -9.402,9.982 -1.62,1.013 -3.196,1.716 -4.63,2.127 -1.435,0.413 -2.71,0.574 -3.745,0.615 -1.038,0.03 -1.835,-0.021 -2.371,-0.079 -0.536,-0.065 -0.812,-0.099 -0.812,-0.099 0,0 0.273,0.052 0.803,0.154 0.531,0.095 1.33,0.202 2.381,0.243 1.051,0.03 2.359,-0.044 3.863,-0.367 1.505,-0.315 3.184,-0.938 4.923,-1.901 3.479,-1.933 7.088,-5.307 10.272,-9.798 3.209,-4.481 6.147,-9.983 8.722,-16.214 2.595,-6.226 4.913,-13.159 6.914,-20.6 1.995,-7.443 3.804,-15.366 5.266,-23.63 1.478,-8.261 2.759,-16.836 3.785,-25.578 0.24,-2.187 0.48,-4.383 0.721,-6.585 0.11,-1.102 0.221,-2.206 0.333,-3.311 l 0.16,-1.629 0.181,-1.654 c 0.248,-2.201 0.469,-4.422 0.739,-6.618 0.303,-2.178 0.606,-4.358 0.908,-6.538 1.329,-8.729 3.049,-17.402 5.328,-25.778 2.289,-8.369 5.012,-16.476 8.27,-24.06 0.84,-1.884 1.684,-3.748 2.541,-5.583 0.919,-1.805 1.775,-3.623 2.72,-5.367 0.954,-1.739 1.843,-3.493 2.859,-5.147 0.493,-0.835 0.983,-1.665 1.469,-2.49 0.502,-0.815 1.028,-1.608 1.535,-2.406 4.104,-6.352 8.518,-12.014 13.023,-16.848 4.509,-4.836 9.042,-8.899 13.286,-12.217 4.254,-3.311 8.205,-5.891 11.547,-7.865 3.354,-1.957 6.074,-3.36 7.949,-4.278 1.89,-0.884 2.899,-1.357 2.899,-1.357 0,0 -1.041,0.398 -2.993,1.146 -1.934,0.792 -4.775,1.965 -8.262,3.749 -3.482,1.785 -7.634,4.142 -12.103,7.302 -4.478,3.141 -9.289,7.059 -14.069,11.834 -0.3,0.297 -0.603,0.594 -0.907,0.895 M 57.825,462.71 c -0.239,-0.072 -0.521,-0.181 -0.824,-0.311 -0.151,-0.062 -0.307,-0.127 -0.466,-0.192 l -0.119,-0.05 -0.1,-0.048 L 56.093,462 c -0.594,-0.299 -1.134,-0.69 -1.51,-1.016 -0.191,-0.165 -0.327,-0.293 -0.438,-0.408 -0.106,-0.11 -0.167,-0.172 -0.167,-0.172 l -0.543,0.52 c 0,0 0.059,0.063 0.164,0.174 0.098,0.107 0.275,0.283 0.476,0.463 0.407,0.366 0.997,0.81 1.643,1.152 l 0.243,0.125 0.134,0.067 0.118,0.053 c 0.157,0.069 0.311,0.138 0.461,0.204 0.294,0.136 0.578,0.256 0.838,0.343 0.508,0.186 0.846,0.31 0.846,0.31 l 0.265,-0.838 c 0,0 -0.32,-0.106 -0.798,-0.267 m 9.68,2.251 c 0,0 0.348,-0.033 0.868,-0.081 0.511,-0.029 1.242,-0.163 1.952,-0.271 0.351,-0.077 0.701,-0.153 1.029,-0.225 0.331,-0.063 0.629,-0.159 0.889,-0.232 0.517,-0.149 0.862,-0.249 0.862,-0.249 l -0.41,-1.207 c 0,0 -0.322,0.103 -0.806,0.256 -0.243,0.075 -0.522,0.175 -0.833,0.242 -0.308,0.077 -0.638,0.158 -0.967,0.239 -0.664,0.117 -1.303,0.26 -1.836,0.307 -0.52,0.062 -0.865,0.103 -0.865,0.103 z m 13.776,-5.405 c 0,0 0.278,-0.21 0.695,-0.526 0.417,-0.301 0.974,-0.776 1.53,-1.229 0.53,-0.474 1.073,-0.936 1.452,-1.312 0.386,-0.368 0.644,-0.614 0.644,-0.614 l -1.159,-1.145 c 0,0 -0.241,0.241 -0.604,0.603 -0.354,0.37 -0.863,0.823 -1.362,1.291 -0.516,0.439 -1.007,0.884 -1.431,1.207 -0.409,0.325 -0.682,0.542 -0.682,0.542 z m 10.191,-10.818 c 0,0 0.755,-1.172 1.511,-2.345 l 1.438,-2.462 -1.737,-0.941 -1.319,2.387 -1.454,2.379 z m 6.948,-13.071 1.056,-2.582 c 0.505,-1.319 1.01,-2.639 1.01,-2.639 l -2.122,-0.766 c 0,0 -0.47,1.293 -0.939,2.586 -0.506,1.3 -1.011,2.599 -1.011,2.599 z m 4.997,-13.877 1.595,-5.346 -2.408,-0.697 -1.502,5.372 z m 5.343,-19.557 -2.679,-0.651 -1.271,5.43 2.586,0.63 z m 3.375,-14.272 -2.891,-0.652 -1.19,5.45 2.823,0.636 z m 3.283,-14.27 -3.066,-0.689 -1.188,5.449 2.999,0.674 z m 3.393,-14.226 -3.234,-0.765 -1.25,5.436 3.167,0.749 z m 3.682,-14.121 -3.388,-0.905 -1.404,5.399 3.319,0.886 z m 2.615,-8.553 1.822,-5.272 -3.43,-1.171 -1.779,5.287 z m 6.197,-16.131 c 0.571,-1.242 1.142,-2.485 1.142,-2.485 l -3.385,-1.581 c 0,0 -0.584,1.296 -1.168,2.593 -0.547,1.282 -1.096,2.564 -1.096,2.564 l 3.391,1.465 c 0,0 0.558,-1.278 1.116,-2.556 m 5.224,-10.394 c 0,0 0.701,-1.205 1.403,-2.411 l 1.423,-2.308 -3.254,-2.054 c 0,0 -0.743,1.224 -1.486,2.45 -0.691,1.21 -1.383,2.421 -1.383,2.421 z m 7.92,-11.94 c 0,0 0.879,-1.083 1.758,-2.165 0.883,-1.012 1.766,-2.025 1.766,-2.025 l -2.952,-2.645 c 0,0 -0.94,1.098 -1.882,2.196 -0.869,1.089 -1.743,2.178 -1.743,2.178 z m 9.781,-10.321 c 0,0 1.077,-0.885 2.155,-1.771 1.061,-0.8 2.123,-1.599 2.123,-1.599 l -2.349,-3.257 c 0,0 -1.163,0.88 -2.327,1.763 -1.074,0.889 -2.148,1.779 -2.148,1.779 z m 11.706,-7.922 c 0,0 1.253,-0.609 2.507,-1.217 1.219,-0.523 2.436,-1.044 2.436,-1.044 l -1.52,-3.759 c 0,0 -1.341,0.582 -2.686,1.164 -1.253,0.612 -2.506,1.223 -2.506,1.223 z m 13.252,-4.932 c 0,0 1.361,-0.306 2.721,-0.61 1.314,-0.239 2.625,-0.478 2.625,-0.478 l -0.662,-4.037 c 0,0 -1.431,0.265 -2.86,0.531 -1.362,0.308 -2.721,0.616 -2.721,0.616 z M 47.578,452.972 c -0.383,-0.352 -0.903,-0.811 -1.41,-1.289 l -2.004,-1.94 -0.257,0.258 c 0,0 0.972,1.001 1.943,2.001 0.494,0.494 1.005,0.975 1.381,1.342 0.378,0.365 0.63,0.609 0.63,0.609 l 0.359,-0.398 c 0,0 -0.256,-0.233 -0.642,-0.583 m -9.526,-10.445 c -0.131,-0.223 -0.305,-0.523 -0.45,-0.837 -0.152,-0.311 -0.266,-0.641 -0.322,-0.893 -0.064,-0.253 -0.051,-0.431 -0.059,-0.43 0.008,0 -0.011,0.176 0.046,0.431 0.048,0.257 0.153,0.592 0.296,0.909 0.136,0.321 0.302,0.628 0.427,0.857 0.131,0.226 0.218,0.376 0.218,0.376 l 0.073,-0.045 c 0,0 -0.091,-0.147 -0.229,-0.368 M 488.158,216.31 c -4.083,-11.938 -34.132,-42.928 -104.479,-14.233 -31.347,12.787 -99.273,63.405 -120.1,75.67 -20.827,12.265 -38.414,0.694 -77.289,3.008 -32.573,1.939 -57.976,53.506 -62.596,81.224 -12.149,72.892 -33.56,109.277 -60.744,106.446 -2.777,-0.289 -14.057,-5.149 -14.578,-8.793 -0.521,-3.645 -11.628,-13.71 -12.496,-15.967 -0.868,-2.256 -0.521,-6.421 2.777,-7.289 3.297,-0.868 24.991,7.983 33.149,2.083 16.99,-12.292 26.418,-64.903 27.248,-93.026 0.926,-31.355 11.57,-91.058 49.057,-127.157 3.7,-3.564 7.034,-6.886 10.118,-9.98 3.556,-9.504 8.408,-22.443 7.634,-27.727 -1.041,-7.117 -10.838,-20.406 -15.871,-24.744 -5.033,-4.34 -9.422,-10.215 -4.041,-11.429 5.381,-1.215 21.83,-1.327 26.169,2.666 4.339,3.99 -6.882,8.753 4.165,22.041 6.094,7.33 8.526,12.326 9.54,15.421 4.398,-2.433 9.144,-4.216 14.74,-5.349 -2.793,9.596 -8.756,26.857 -11.697,29.931 l 5.927,-3.535 c 3.805,-9.336 8.598,-30.156 8.971,-33.461 0.895,-7.955 -1.707,-5.004 -0.533,-14.066 0.367,-2.842 -0.592,-8.289 -2.224,-13.17 -1.028,-0.875 -2.175,-1.853 -3.194,-2.732 -1.487,-1.284 -2.697,-2.35 -2.844,-2.545 -0.58,-0.77 -1.298,-1.457 -0.676,-1.891 -0.136,-0.199 -0.25,-0.398 -0.307,-0.596 -0.293,-1.007 0.215,-1.648 1.088,-2.05 0.332,-0.151 0.715,-0.27 1.131,-0.36 0.029,-0.084 0.067,-0.164 0.113,-0.242 1.414,-2.303 10.752,-2.238 18.552,-0.01 9.719,2.778 -2.759,11.231 1.765,20.104 3.549,6.963 3.614,16.041 11.247,23.502 2.4,0.156 4.917,0.361 7.559,0.615 -0.218,-2.596 -0.269,-5.871 0.487,-9.318 1.041,-4.745 -2.285,-13.942 -6.103,-18.282 -3.818,-4.338 7.118,-5.234 16.837,-2.457 9.719,2.776 -2.866,6.951 2.947,20.42 2.234,5.174 1.725,8.821 2.773,11.692 3.173,0.447 6.486,0.945 9.963,1.494 -2.8,10.105 -10.965,26.844 -14.325,32.992 l 3.255,0.436 c 4.993,-10.26 14.234,-32.495 13.984,-39.165 -0.065,-1.734 -1.427,-6.511 -0.116,-15.189 0.726,-4.803 -3.647,-17.803 -7.465,-22.143 -1.403,-1.591 -0.751,-2.839 1.109,-3.644 3.206,-1.385 10.012,-1.455 16.162,0.303 9.719,2.777 -0.022,12.662 3.074,22.129 2.856,8.734 3.442,9.824 7.472,22.13 0.663,2.026 0.541,3.487 0.051,5.221 63.749,6.748 100.151,-3.965 128.717,-8.322 34.134,-5.207 71.988,6.367 77.717,32.613 0.967,4.438 -1.563,13.324 -3.82,6.731"
           style="fill:#000000;fill-opacity:1;fill-rule:nonzero;stroke:none"
           id="path3111"
           inkscape:connector-curvature="0" /></g></g></g></svg>