<?xml version="1.0" encoding="UTF-8" standalone="no"?>
<!-- Created with Inkscape (http://www.inkscape.org/) -->

<svg
   xmlns:dc="http://purl.org/dc/elements/1.1/"
   xmlns:cc="http://creativecommons.org/ns#"
   xmlns:rdf="http://www.w3.org/1999/02/22-rdf-syntax-ns#"
   xmlns:svg="http://www.w3.org/2000/svg"
   xmlns="http://www.w3.org/2000/svg"
   xmlns:sodipodi="http://sodipodi.sourceforge.net/DTD/sodipodi-0.dtd"
   xmlns:inkscape="http://www.inkscape.org/namespaces/inkscape"
   width="166.1467mm"
   height="169.06851mm"
   viewBox="0 0 588.70877 599.06165"
   id="svg4296"
   version="1.1"
   inkscape:version="0.91 r13725"
   sodipodi:docname="Elephant5.svg">
  <defs
     id="defs4298" />
  <sodipodi:namedview
     id="base"
     pagecolor="#ffffff"
     bordercolor="#666666"
     borderopacity="1.0"
     inkscape:pageopacity="0.0"
     inkscape:pageshadow="2"
     inkscape:zoom="1.1184158"
     inkscape:cx="294.35439"
     inkscape:cy="299.53083"
     inkscape:document-units="px"
     inkscape:current-layer="layer1"
     showgrid="false"
     fit-margin-top="0"
     fit-margin-left="0"
     fit-margin-right="0"
     fit-margin-bottom="0"
     inkscape:window-width="1600"
     inkscape:window-height="837"
     inkscape:window-x="-8"
     inkscape:window-y="-8"
     inkscape:window-maximized="1" />
  <metadata
     id="metadata4301">
    <rdf:RDF>
      <cc:Work
         rdf:about="">
        <dc:format>image/svg+xml</dc:format>
        <dc:type
           rdf:resource="http://purl.org/dc/dcmitype/StillImage" />
        <dc:title></dc:title>
      </cc:Work>
    </rdf:RDF>
  </metadata>
  <g
     inkscape:label="Layer 1"
     inkscape:groupmode="layer"
     id="layer1"
     transform="translate(1268.6401,532.88291)">
    <path
       inkscape:connector-curvature="0"
       style="fill:#000000"
       d="m -1048.6898,64.423891 c -6.0639,-2.09462 -9.327,-5.02384 -10.4952,-9.4214 -0.4876,-1.83557 -1.3275,-16.62646 -1.8664,-32.86865 -1.3386,-40.34717 -5.5414,-83.86702 -11.7603,-121.77909 -5.3486,-32.606121 -8.3187,-71.970021 -7.7267,-102.404781 0.4056,-20.84684 0.6567,-23.62722 2.8679,-31.75363 4.6838,-17.21343 18.0995,-53.22913 27.7303,-74.44483 1.6169,-3.56185 2.8102,-6.60575 2.6517,-6.76422 -0.1585,-0.15848 -5.752,7.57563 -12.4302,17.18692 -31.1021,44.76282 -51.3802,69.64713 -56.7551,69.64713 -2.0536,0 -9.0996,-7.79872 -15.1823,-16.80434 -14.9828,-22.1825 -36.7553,-33.62716 -75.0749,-39.463 -22.3632,-3.40579 -35.7412,-8.26732 -40.7229,-14.7986 -1.9716,-2.58491 -2.4454,-4.34287 -2.6596,-9.86777 -0.1433,-3.6974 -0.8846,-10.94129 -1.6472,-16.09754 -0.7627,-5.15625 -1.6578,-12.96094 -1.9891,-17.34375 -0.3313,-4.38281 -3.0778,-21.67969 -6.1033,-38.4375 -3.0255,-16.75781 -6.2403,-35.84642 -7.144,-42.41912 l -1.643,-11.95038 3.2335,-3.37328 c 3.1032,-3.23741 42.3571,-38.83288 48.2993,-43.7978 3.6739,-3.06976 16.1553,-10.73501 23.1323,-14.20641 2.9622,-1.4738 8.2416,-5.24849 11.7322,-8.3882 17.5075,-15.74794 31.913,-22.69928 49.1532,-23.71894 10.453,-0.61823 17.7037,0.52901 27.6478,4.37456 9.5728,3.70195 38.1542,20.12758 58.0621,33.36802 l 16.9823,11.29471 5.1768,-3.52588 c 12.293,-8.37262 29.56755,-15.27698 44.14009,-17.64213 8.41304,-1.36546 26.05292,-1.15465 35.81029,0.42794 10.66657,1.73007 22.66197,5.1779 34.52403,9.92322 5.08172,2.0329 9.35475,3.69619 9.49564,3.69619 0.14088,0 0.7737,-1.2495 1.40627,-2.77666 3.22507,-7.78598 15.57743,-12.74676 49.2336,-19.77249 24.7899,-5.17489 35.38627,-8.40236 47.8125,-14.56286 20.25276,-10.04062 35.50774,-11.37167 55.00452,-4.79931 16.18701,5.45663 28.12224,12.21735 36.68532,20.78043 9.267,9.26701 10.58099,21.32133 5.48378,50.30732 l -2.90509,16.52016 3.21279,7.96759 c 1.76703,4.38216 6.84404,15.68374 11.28222,25.11459 9.0004,19.12527 12.04748,27.41204 13.65199,37.12771 2.57708,15.60479 -5.41311,27.07039 -36.16553,51.89606 -16.01625,12.92953 -29.18057,24.92799 -35.15625,32.04273 -4.31417,5.13653 -5.33192,7.06808 -6.2319,11.82737 -3.52642,18.64849 -17.93795,16.66589 -49.54935,-6.81652 -12.4023,-9.213 -28.88272,-22.93027 -43.79964,-36.4561 -6.04293,-5.47939 -11.24146,-9.96252 -11.55228,-9.96252 -0.31083,0 3.04078,6.89434 7.44801,15.32076 4.40724,8.42641 9.48913,19.73161 11.29308,25.12265 5.92219,17.6982 9.87925,40.29141 11.68055,66.69129 1.03705,15.19889 2.09554,17.9905 10.37945,27.37437 6.91468,7.83282 18.83616,18.51529 24.39458,21.8592 3.58967,2.15953 5.26722,2.53753 11.25,2.53493 6.20909,-0.003 7.71648,-0.37428 12.89144,-3.17793 7.24294,-3.924 17.26621,-14.24633 25.36318,-26.11993 6.46809,-9.48494 8.66381,-10.80822 8.54906,-5.15222 -0.1562,7.69911 -3.27168,11.82983 -20.55368,27.25144 -11.19397,9.98894 -16.80867,13.68571 -23.8251,15.68661 -13.00169,3.70775 -28.00251,-2.18384 -43.83308,-17.21549 l -6.87307,-6.5262 -0.22826,11.84714 c -0.12555,6.51592 -1.51765,27.24557 -3.09356,46.06588 -1.57591,18.82031 -3.2562,41.601561 -3.73395,50.625001 -0.47775,9.02344 -1.31625,20.41406 -1.8633,25.3125 -0.54707,4.89844 -1.40499,26.83594 -1.90648,48.7499998 -0.50149,21.9140602 -1.16481,41.2037502 -1.47404,42.8659702 -1.18715,6.38142 -15.91361,15.85125 -30.43569,19.57163 -7.90506,2.02518 -15.66414,0.77742 -25.18668,-4.05032 -6.18049,-3.13341 -7.13794,-3.97755 -8.27244,-7.29353 -2.03669,-5.9529 -5.45141,-24.37739 -9.12199,-49.21875019 -5.47577,-37.05819981 -10.25307,-56.79518981 -19.28822,-79.68749981 -6.07728,-15.39796 -5.80774,-15.02816 -8.86502,-12.16294 -6.60364,6.18882 -15.70772,28.80636 -25.27356,62.78794 -13.86124,49.24042 -16.66929,59.04458 -19.78423,69.07562 -3.09514,9.96727 -3.50663,10.7119 -8.3816,15.16733 -5.7536,5.25846 -12.5538,8.78485 -19.934,10.33712 -7.7623,1.63264 -21.3977,1.26758 -27.1736,-0.72752 z"
       id="path8057" />
  </g>
</svg>
