<?xml version="1.0" encoding="UTF-8" standalone="no"?>
<!-- Created with Inkscape (http://www.inkscape.org/) -->

<svg
   xmlns:dc="http://purl.org/dc/elements/1.1/"
   xmlns:cc="http://creativecommons.org/ns#"
   xmlns:rdf="http://www.w3.org/1999/02/22-rdf-syntax-ns#"
   xmlns:svg="http://www.w3.org/2000/svg"
   xmlns="http://www.w3.org/2000/svg"
   xmlns:sodipodi="http://sodipodi.sourceforge.net/DTD/sodipodi-0.dtd"
   xmlns:inkscape="http://www.inkscape.org/namespaces/inkscape"
   version="1.1"
   id="svg815"
   xml:space="preserve"
   width="880"
   height="880"
   viewBox="0 0 880 880"
   sodipodi:docname="bulls-silhouette-freesvg.org.svg"
   inkscape:version="0.92.4 (5da689c313, 2019-01-14)"><metadata
     id="metadata821"><rdf:RDF><cc:Work
         rdf:about=""><dc:format>image/svg+xml</dc:format><dc:type
           rdf:resource="http://purl.org/dc/dcmitype/StillImage" /><dc:title></dc:title></cc:Work></rdf:RDF></metadata><defs
     id="defs819"><clipPath
       clipPathUnits="userSpaceOnUse"
       id="clipPath831"><path
         d="M 0,660 H 660 V 0 H 0 Z"
         id="path829"
         inkscape:connector-curvature="0" /></clipPath></defs><sodipodi:namedview
     pagecolor="#ffffff"
     bordercolor="#666666"
     borderopacity="1"
     objecttolerance="10"
     gridtolerance="10"
     guidetolerance="10"
     inkscape:pageopacity="0"
     inkscape:pageshadow="2"
     inkscape:window-width="1920"
     inkscape:window-height="1018"
     id="namedview817"
     showgrid="false"
     inkscape:zoom="0.96477273"
     inkscape:cx="440"
     inkscape:cy="440"
     inkscape:window-x="-8"
     inkscape:window-y="-8"
     inkscape:window-maximized="1"
     inkscape:current-layer="g823" /><g
     id="g823"
     inkscape:groupmode="layer"
     inkscape:label="bulls-silhouette-freesvg.org"
     transform="matrix(1.3333333,0,0,-1.3333333,0,880)"><g
       id="g825"><g
         id="g827"
         clip-path="url(#clipPath831)"><path
           d="m 518.097,229.686 c -6.786,-2.089 -10.198,-4.84 -10.45,-7.606 -0.115,-1.384 0.602,-2.788 2.305,-4.104 1.686,-1.308 4.463,-2.539 8.155,-3.435 3.657,-0.895 8.633,-1.512 13.935,-1.881 5.317,-0.368 10.983,-0.5 16.498,-0.439 5.481,0.064 10.998,0.309 15.497,0.794 1.119,0.119 2.159,0.255 3.027,0.401 0.475,0.072 0.796,0.144 1.217,0.226 l 1.541,0.337 c 2.051,0.449 3.995,0.919 5.801,1.409 1.833,0.484 3.474,0.997 4.967,1.524 1.492,0.525 2.786,1.072 3.798,1.635 2.055,1.125 3.001,2.303 2.562,3.477 -0.413,1.174 -2.191,2.355 -4.97,3.489 -2.789,1.135 -6.446,2.214 -10.626,3.235 -6.39,1.584 -13.637,2.925 -21.415,4.014 -0.868,0.026 -1.736,0.047 -2.602,0.06 -5.826,0.08 -11.543,-0.134 -16.54,-0.691 -5.023,-0.544 -9.308,-1.404 -12.7,-2.445 m 124.504,-5.894 c -2.273,0.546 -4.833,1.014 -7.477,1.442 -5.304,0.855 -10.959,1.558 -16.686,2.202 -10.889,1.21 -22.11,2.192 -33.412,3.067 3.655,-1.041 7.08,-2.177 9.898,-3.435 3.499,-1.553 5.988,-3.346 6.305,-5.159 0.373,-1.813 -1.475,-3.549 -4.477,-5.004 -1.488,-0.732 -3.264,-1.406 -5.202,-2.028 -1.939,-0.623 -4.008,-1.208 -6.218,-1.743 -2.189,-0.544 -4.483,-1.049 -6.85,-1.524 l -1.777,-0.355 c -0.733,-0.135 -1.551,-0.286 -2.334,-0.397 -1.586,-0.24 -3.189,-0.423 -4.799,-0.578 -3.222,-0.307 -6.475,-0.504 -9.755,-0.633 -3.279,-0.131 -6.584,-0.194 -9.91,-0.2 -6.643,-0.009 -13.403,0.202 -20.09,0.727 -3.336,0.265 -6.649,0.612 -9.822,1.067 -3.163,0.456 -6.209,1.017 -8.806,1.703 -5.189,1.377 -8.214,3.01 -9.964,4.619 -1.726,1.618 -2.163,3.237 -1.699,4.799 0.473,1.565 1.856,3.079 4.124,4.498 2.26,1.415 5.417,2.74 9.556,3.865 4.12,1.124 9.279,2.046 15.203,2.59 3.855,0.367 8.005,0.557 12.208,0.599 -9.828,1.06 -20.242,1.755 -30.827,2.122 -11.409,0.407 -22.996,0.443 -34.459,0.243 -11.471,-0.208 -22.839,-0.664 -33.978,-1.31 -9.446,-0.548 -18.735,-1.233 -27.787,-2.033 7.494,-2.7 10.297,-6.151 4.466,-10.587 -18.85,-14.342 -64.959,-22.145 -110.931,-24.504 -45.974,-2.361 -70.319,2.756 -94.864,3.044 -17.455,0.038 -29.771,-0.464 -26.701,-2.859 3.176,-2.48 1.435,-4.873 -9.145,-4.728 -10.737,0.146 -16.115,1.629 -18.311,3.369 -2.059,1.631 -2.654,-4.112 -12.39,-3.596 -10.02,0.53 -15.185,3.093 -16.407,3.717 -13.346,0.334 -26.432,1.086 -29.64,2.396 -0.462,0.304 -7.482,1.331 -15.793,2.459 -0.301,-0.674 -0.485,-1.356 -0.513,-2.041 -0.007,-0.911 0.224,-1.835 1.146,-2.74 0.462,-0.451 1.093,-0.899 2.012,-1.319 0.915,-0.419 2.147,-0.81 3.706,-1.109 -1.604,0.285 -2.914,0.667 -3.912,1.083 -1.003,0.418 -1.721,0.87 -2.266,1.325 -1.093,0.915 -1.489,1.853 -1.642,2.779 -0.097,0.736 -0.013,1.467 0.195,2.194 -1.718,0.232 -3.473,0.467 -5.23,0.7 -0.871,-0.457 -1.765,-0.911 -2.691,-1.361 -2.351,-1.133 -4.873,-2.244 -7.673,-3.308 -2.793,-1.066 -5.853,-2.09 -9.388,-3.009 -1.779,-0.457 -3.675,-0.889 -5.757,-1.264 -2.077,-0.375 -4.362,-0.695 -6.879,-0.885 2.486,0.209 4.709,0.543 6.723,0.932 2.017,0.389 3.841,0.832 5.544,1.299 3.389,0.941 6.292,1.983 8.931,3.062 2.642,1.079 5.007,2.203 7.197,3.349 0.866,0.456 1.698,0.916 2.511,1.381 -0.935,0.123 -1.864,0.244 -2.783,0.365 -1.002,-0.422 -2.037,-0.839 -3.131,-1.247 -1.819,-0.67 -3.749,-1.321 -5.879,-1.933 -2.121,-0.611 -4.432,-1.188 -7.06,-1.674 -2.624,-0.474 -5.635,-0.888 -9.069,-0.942 3.401,0.094 6.264,0.537 8.75,1.035 2.486,0.511 4.643,1.108 6.611,1.737 1.975,0.63 3.748,1.298 5.408,1.982 0.979,0.408 1.917,0.824 2.807,1.246 -1.116,0.146 -2.205,0.287 -3.263,0.424 -1.213,-0.261 -2.437,-0.519 -3.686,-0.771 -2.899,-0.581 -5.884,-1.136 -9.009,-1.647 -3.128,-0.509 -6.381,-0.981 -9.872,-1.347 -3.465,-0.358 -7.265,-0.654 -11.237,-0.527 3.968,-0.087 7.648,0.244 11.005,0.633 3.377,0.398 6.505,0.899 9.503,1.435 2.999,0.537 5.852,1.12 8.614,1.726 1.043,0.23 2.062,0.468 3.081,0.705 -1.277,0.166 -2.487,0.321 -3.609,0.466 -2.336,-0.357 -4.736,-0.684 -7.212,-0.985 -4.02,-0.487 -8.235,-0.889 -12.598,-1.197 -4.37,-0.298 -8.914,-0.49 -13.552,-0.518 -2.32,-0.014 -4.656,0.021 -6.984,0.093 -2.33,0.081 -4.639,0.215 -6.908,0.387 2.286,-0.154 4.596,-0.267 6.914,-0.329 2.316,-0.052 4.628,-0.067 6.913,-0.036 4.57,0.067 9.01,0.296 13.263,0.628 4.244,0.339 8.324,0.771 12.198,1.285 2.105,0.28 4.168,0.582 6.163,0.903 -1.226,0.158 -2.29,0.293 -3.172,0.409 -2.948,-0.357 -5.972,-0.633 -9.101,-0.868 -3.322,-0.243 -6.743,-0.423 -10.219,-0.536 -3.471,-0.122 -7.024,-0.15 -10.576,-0.106 l -2.667,0.044 -2.662,0.092 -1.329,0.047 -1.322,0.074 -2.634,0.146 2.647,-0.118 1.32,-0.06 1.326,-0.032 2.649,-0.063 2.64,-0.015 c 3.51,-0.003 6.993,0.062 10.373,0.222 3.385,0.149 6.696,0.362 9.892,0.637 2.608,0.228 5.177,0.495 7.589,0.803 -0.325,0.043 -0.522,0.07 -0.56,0.076 -0.437,0.309 -0.754,0.599 -0.963,0.872 -1.333,-0.094 -2.672,-0.17 -4.041,-0.232 -2.083,-0.092 -4.205,-0.147 -6.343,-0.161 -2.135,-0.022 -4.302,0.023 -6.441,0.102 -2.146,0.077 -4.252,0.239 -6.292,0.429 2.083,-0.155 4.191,-0.274 6.307,-0.314 2.11,-0.039 4.216,-0.044 6.275,0.014 2.06,0.054 4.085,0.145 6.056,0.272 1.438,0.092 2.874,0.204 4.238,0.334 -0.091,0.261 -0.073,0.505 0.04,0.735 -2.347,0.015 -4.666,0.065 -7.003,0.14 -2.995,0.097 -5.98,0.242 -8.927,0.439 -2.941,0.208 -5.828,0.474 -8.603,0.806 -2.755,0.346 -5.339,0.775 -7.656,1.278 2.416,-0.474 5.054,-0.867 7.827,-1.175 2.796,-0.293 5.672,-0.516 8.582,-0.683 2.919,-0.156 5.858,-0.261 8.793,-0.319 2.456,-0.046 4.939,-0.063 7.351,-0.042 0.141,0.125 0.308,0.247 0.511,0.363 -3.188,0.154 -6.356,0.352 -9.464,0.613 -3.286,0.278 -6.525,0.623 -9.516,1.083 -2.997,0.451 -5.721,1.037 -7.731,1.739 2.139,-0.681 4.925,-1.228 7.947,-1.64 3.015,-0.421 6.247,-0.723 9.512,-0.961 3.259,-0.235 6.571,-0.402 9.889,-0.519 0.456,0.193 0.995,0.373 1.605,0.541 -0.494,0.054 -0.991,0.108 -1.481,0.162 -3.178,0.362 -6.308,0.75 -9.32,1.198 -3.002,0.447 -5.953,0.922 -8.655,1.48 -2.696,0.556 -5.2,1.174 -7.225,1.874 2.152,-0.681 4.744,-1.264 7.501,-1.787 2.765,-0.523 5.761,-0.959 8.793,-1.369 3.039,-0.408 6.189,-0.757 9.369,-1.077 0.706,-0.072 1.415,-0.14 2.126,-0.206 0.92,0.209 1.948,0.398 3.055,0.575 -1.371,0.292 -2.717,0.592 -4.032,0.9 -3.147,0.744 -6.094,1.537 -8.797,2.374 -2.693,0.84 -5.04,1.738 -7.052,2.671 -1.972,0.94 -3.373,1.933 -4.318,2.934 1.1,-0.997 2.644,-1.971 4.737,-2.887 2.131,-0.908 4.579,-1.776 7.355,-2.583 2.787,-0.803 5.801,-1.559 8.999,-2.266 1.464,-0.32 2.971,-0.633 4.506,-0.934 0.517,0.073 1.043,0.144 1.581,0.215 -1.074,0.44 -2.128,0.882 -3.151,1.329 -1.657,0.726 -3.254,1.461 -4.734,2.206 -1.476,0.746 -2.897,1.498 -4.09,2.267 -1.195,0.77 -2.261,1.551 -2.863,2.347 0.758,-0.792 1.97,-1.56 3.303,-2.312 1.332,-0.752 2.886,-1.487 4.492,-2.211 1.609,-0.727 3.333,-1.439 5.114,-2.143 1.106,-0.438 2.25,-0.87 3.408,-1.3 0.973,0.115 1.965,0.228 2.959,0.335 -0.87,0.476 -1.596,0.958 -2.256,1.447 -1.194,0.909 -2.011,1.831 -2.582,2.755 -0.229,0.462 -0.492,0.925 -0.578,1.387 -0.17,0.462 -0.172,0.922 -0.193,1.381 -0.043,0.46 0.127,0.913 0.18,1.37 0.141,0.454 0.356,0.903 0.529,1.354 -0.095,-0.454 -0.23,-0.908 -0.291,-1.363 0.027,-0.457 -0.062,-0.913 0.06,-1.371 0.101,-0.457 0.181,-0.915 0.429,-1.372 0.164,-0.459 0.504,-0.915 0.809,-1.369 0.717,-0.91 1.675,-1.811 2.99,-2.688 0.698,-0.462 1.494,-0.922 2.393,-1.368 1.458,0.157 2.899,0.313 4.27,0.474 l -0.585,1.682 c -0.377,1.171 -0.676,2.341 -0.844,3.511 -0.163,1.169 -0.201,2.337 0.023,3.497 0.248,1.157 0.681,2.317 1.954,3.411 -1.118,-1.107 -1.386,-2.268 -1.476,-3.424 -0.065,-1.162 0.134,-2.328 0.454,-3.494 0.325,-1.167 0.783,-2.335 1.316,-3.502 l 0.722,-1.492 c 0.826,0.103 1.612,0.211 2.351,0.324 1.556,0.722 3.075,1.454 4.532,2.192 2.07,1.054 4.037,2.122 5.899,3.203 1.842,1.083 3.551,2.182 5.118,3.297 1.516,1.12 2.866,2.256 3.925,3.418 -0.902,-1.173 -2.1,-2.324 -3.467,-3.463 -1.42,-1.131 -2.984,-2.251 -4.683,-3.354 -1.718,-1.103 -3.544,-2.194 -5.478,-3.271 -0.052,-0.029 2.035,-0.24 3.017,-0.439 1.785,0.224 5.213,0.368 8.922,0.511 2.504,1.007 4.499,2.103 6.17,3.229 1.875,1.27 3.342,2.587 4.481,3.926 1.128,1.341 1.948,2.706 2.305,4.092 -0.198,-1.392 -0.86,-2.768 -1.835,-4.124 -0.985,-1.355 -2.304,-2.69 -4.045,-3.987 -1.424,-1.059 -3.134,-2.093 -5.288,-3.068 2.678,0.103 5.388,0.214 7.641,0.359 1.54,0.1 4.096,0.257 7.217,0.451 1.213,0.344 2.379,0.694 3.493,1.055 2.283,0.751 4.304,1.551 6.114,2.381 1.785,0.834 3.261,1.711 4.536,2.607 2.426,1.807 3.751,3.722 4.051,5.67 -0.222,-1.951 -1.465,-3.873 -3.824,-5.693 -1.24,-0.905 -2.683,-1.787 -4.441,-2.63 -1.782,-0.839 -3.778,-1.647 -6.042,-2.408 -0.948,-0.316 -1.944,-0.622 -2.968,-0.923 12.402,0.783 33.559,3.21 36.48,3.018 0,0 -30.636,-3.818 -29.782,-2.932 0.827,0.644 38.311,7.289 58.426,13.341 -0.262,2.194 -0.483,5.6 0.489,6.57 1.473,1.468 -0.358,4.753 -2.022,5.2 -1.663,0.445 -9.752,2.15 -11.183,2.245 -1.433,0.093 -13.603,1.322 -13.603,1.322 l 0.972,0.136 c 0,0 4.682,-0.1 8.196,-0.242 -2.233,0.359 -5.959,0.938 -6.273,0.979 -0.417,0.054 0.562,0.15 1.278,0.075 0.716,-0.077 3.143,-0.263 4.278,-0.262 1.136,0.001 -0.06,0.017 2.51,-0.063 1.142,-0.034 3.107,-0.25 5.321,-0.49 -1.148,0.311 -2.188,0.597 -2.335,0.662 -0.348,0.155 -0.464,0.258 1.264,0.084 1.73,-0.173 0.354,-0.184 2.682,-0.371 1.996,-0.16 11.044,-1.025 15.537,-1.465 2.75,-0.231 4.962,-0.422 4.962,-0.422 0,0 3.89,-0.656 4.337,-1.882 0.19,-0.52 1.676,-2.485 3.377,-4.573 0.031,0.03 0.07,0.06 0.098,0.088 2.698,2.653 0.876,6.343 0.187,7.518 -0.447,0.766 -4.723,1.827 -9.069,2.486 -3.877,0.18 -14.202,0.663 -16.735,0.774 -3.107,0.134 -6.091,0.324 -6.329,0.345 -0.239,0.021 1.499,0.18 1.499,0.18 0,0 2.183,-0.037 5.096,0.018 -0.594,0.077 -1.175,0.155 -1.742,0.231 -2.629,0.355 -7.046,0.373 -7.041,0.549 0.005,0.175 4.43,0.268 5.862,0.145 1.432,-0.122 2.623,-0.283 10.636,-0.243 8.012,0.039 13.05,-0.49 19.713,-0.627 6.663,-0.136 8.108,-0.905 8.941,-1.042 0.835,-0.136 3.596,-1.215 3.298,-2.069 -0.772,-2.207 12.352,-6.478 15.825,-7.914 3.472,-1.437 0.729,0.473 0.729,0.473 0,0 24.114,1.667 45.973,0.819 0.014,0.004 0.028,0.01 0.042,0.014 0.425,0.131 0.86,0.25 1.301,0.364 l -17.735,0.701 c -3.163,0.189 -6.347,0.629 -11.921,0.844 -5.575,0.216 -7.228,0.055 -9.295,0.3 -2.066,0.245 -1.667,0.229 -0.95,0.244 0.717,0.012 5.083,0.039 7.721,-0.026 1.261,-0.033 3.156,-0.071 5.087,-0.107 -1.273,0.153 -2.405,0.274 -3.158,0.329 -3.103,0.221 -1.502,0.481 -1.502,0.481 0,0 4.477,-0.143 9.367,-0.278 -2.433,0.232 -3.917,0.402 -5.155,0.626 -1.86,0.337 -0.983,0.398 -0.255,0.375 0.73,-0.022 5.071,-0.416 7.692,-0.405 2.418,0.012 9.167,-0.48 13.265,-0.779 0.794,-0.012 1.875,-0.029 3.371,-0.049 8.486,-0.125 17.535,-0.528 18.249,-0.513 0.284,0.007 0.968,-0.045 1.691,-0.108 6.011,0.051 10.441,-0.182 9.717,0.771 -1.255,1.651 -12.275,2.442 -21.26,2.954 -5.431,-0.012 -12.422,-0.026 -12.64,-0.02 -0.36,0.008 -2.329,0.144 -4.839,0.179 -2.51,0.033 -3.105,0.138 -1.848,0.177 1.163,0.037 3.041,0.199 4.456,0.347 -2.392,0.148 -1.88,0.132 -6.875,0.319 -6.132,0.23 -9.178,0.368 -8.456,0.524 0.72,0.156 2.871,0.044 3.428,0.03 0.435,-0.011 8.934,-0.068 12.877,-0.117 -1.906,0.184 -3.646,0.328 -4.93,0.387 -4.698,0.217 -2.744,0.406 2.909,0.347 3.156,-0.033 6.061,-0.259 11.387,-0.456 0.837,-0.03 3.214,0.039 4.093,0.004 14.73,-0.573 35.324,-1.622 55.225,-2.777 13.666,-0.793 37.034,-2.129 55.7,-4.863 2.019,0.176 4.041,0.349 6.077,0.514 11.734,0.948 23.737,1.711 36.013,2.276 12.275,0.565 24.83,0.924 37.618,1.014 12.786,0.081 25.824,-0.101 38.876,-0.71 13.033,-0.598 26.091,-1.635 38.334,-3.199 11.823,-1.523 22.781,-3.547 31.899,-5.946 0.792,-0.068 1.589,-0.13 2.382,-0.197 11.909,-1.023 23.718,-2.16 35.133,-3.547 5.689,-0.698 11.299,-1.457 16.542,-2.366 2.61,-0.456 5.136,-0.95 7.358,-1.522 2.188,-0.566 4.189,-1.234 4.756,-1.986 -0.684,0.748 -2.752,1.39 -4.992,1.93"
           style="fill:#66686e;fill-opacity:1;fill-rule:nonzero;stroke:none"
           id="path833"
           inkscape:connector-curvature="0" /><path
           d="m 577.238,295.91 c -2.813,-4.408 -6.498,-8.489 -10.702,-12.277 -6.426,-5.891 -13.705,-10.681 -21.508,-14.382 -0.868,-0.017 -1.736,-0.017 -2.603,0.019 -5.825,0.263 -11.535,1.742 -16.517,4.555 -5.008,2.761 -9.27,6.76 -12.635,11.404 -6.733,9.336 -10.073,21.05 -10.258,32.504 -0.079,5.732 0.672,11.46 2.407,16.718 1.717,5.232 4.524,10.041 8.238,13.36 3.677,3.322 8.668,5.352 13.977,6.333 5.326,0.981 10.992,0.941 16.504,0.125 5.478,-0.83 10.987,-2.407 15.472,-4.874 1.116,-0.606 2.154,-1.272 3.017,-1.967 0.473,-0.349 0.792,-0.679 1.21,-1.057 l 1.533,-1.553 c 2.039,-2.07 3.971,-4.21 5.763,-6.419 1.821,-2.191 3.449,-4.48 4.927,-6.804 1.479,-2.327 2.759,-4.719 3.756,-7.148 2.027,-4.857 2.943,-9.829 2.476,-14.634 -0.442,-4.808 -2.249,-9.501 -5.057,-13.903 m -308.153,0.398 c -1.203,23.215 17.192,53.665 44.568,53.665 -21.311,-1.572 -40.278,-31.561 -44.568,-53.665 M 158.094,437.769 c -1.172,1.448 -2.196,3.04 -2.85,4.835 -0.308,0.9 -0.498,1.864 -0.478,2.852 0.031,0.983 0.332,2.002 0.937,2.808 0.604,0.809 1.431,1.394 2.298,1.798 0.874,0.404 1.779,0.677 2.74,0.789 0.947,0.108 1.989,0.02 2.853,-0.51 0.866,-0.521 1.426,-1.409 1.689,-2.316 0.269,-0.914 0.317,-1.861 0.231,-2.784 -0.046,-0.461 -0.124,-0.92 -0.261,-1.363 -0.07,-0.22 -0.153,-0.439 -0.266,-0.641 -0.111,-0.188 -0.257,-0.433 -0.503,-0.437 0.24,0.028 0.349,0.275 0.44,0.467 0.089,0.208 0.148,0.426 0.195,0.648 0.095,0.44 0.141,0.892 0.15,1.34 0.015,0.9 -0.104,1.806 -0.415,2.626 -0.301,0.819 -0.819,1.556 -1.555,1.949 -0.731,0.403 -1.615,0.447 -2.464,0.311 -1.683,-0.328 -3.455,-1.05 -4.43,-2.385 -0.989,-1.357 -0.849,-3.218 -0.26,-4.839 0.571,-1.656 1.519,-3.202 2.622,-4.605 0.555,-0.7 1.158,-1.366 1.804,-1.977 0.655,-0.605 1.317,-1.194 2.094,-1.506 0.757,-0.325 1.66,-0.279 2.07,0.394 0.42,0.662 0.338,1.61 0.098,2.44 -0.491,1.712 -1.608,3.219 -2.801,4.588 1.34,-1.234 2.555,-2.679 3.227,-4.452 0.308,-0.873 0.491,-1.923 -0.026,-2.879 -0.257,-0.467 -0.765,-0.82 -1.292,-0.907 -0.531,-0.098 -1.054,-0.011 -1.524,0.153 -0.941,0.341 -1.716,0.944 -2.401,1.568 -0.691,0.634 -1.329,1.315 -1.922,2.035 m 4,18.856 c 1.502,-1.076 2.723,-2.513 3.641,-4.113 0.91,-1.605 1.477,-3.408 1.63,-5.238 0.169,-1.831 -0.103,-3.674 -0.717,-5.359 0.516,3.547 -0.007,7.115 -1.745,10.128 -0.843,1.506 -1.948,2.868 -3.264,3.992 -1.326,1.092 -2.895,1.98 -4.699,2.091 1.798,0.274 3.676,-0.434 5.154,-1.501 m 4.519,8.705 c 1.461,0.333 3.046,0.434 4.533,0.002 1.494,-0.402 2.775,-1.339 3.686,-2.49 -1.178,0.888 -2.49,1.518 -3.854,1.763 -1.367,0.247 -2.777,0.122 -4.153,-0.207 -2.772,-0.635 -5.435,-1.859 -8.221,-2.804 2.452,1.614 5.073,3.026 8.009,3.736 m -42.354,-60.424 c -4.035,2.984 -8.476,5.372 -13.052,7.412 -4.58,2.045 -9.307,3.745 -14.098,5.224 -4.791,1.465 -9.659,2.738 -14.557,3.712 l -0.011,0.002 c -0.259,0.052 -0.429,0.302 -0.375,0.562 0.051,0.259 0.302,0.428 0.561,0.377 0.002,-0.002 0.006,-0.003 0.007,-0.003 4.946,-1.065 9.796,-2.417 14.592,-3.966 4.789,-1.563 9.511,-3.344 14.079,-5.473 4.564,-2.122 8.992,-4.593 12.999,-7.656 3.936,-3.084 7.584,-6.852 9.373,-11.602 -1.866,4.718 -5.555,8.404 -9.518,11.411 m 1.451,-16.232 -1.235,1.344 -1.333,1.25 c -0.869,0.851 -1.808,1.627 -2.742,2.408 -0.919,0.798 -1.885,1.54 -2.851,2.28 -3.862,2.962 -7.888,5.71 -12.006,8.306 -4.126,2.582 -8.333,5.036 -12.631,7.312 -4.297,2.237 -8.687,4.458 -13.268,5.83 l -0.036,0.012 c -0.253,0.075 -0.396,0.341 -0.32,0.593 0.075,0.255 0.342,0.397 0.594,0.322 0.003,0 0.006,-0.001 0.008,-0.002 4.745,-1.509 9.066,-3.801 13.363,-6.123 4.277,-2.358 8.456,-4.886 12.548,-7.541 4.084,-2.67 8.074,-5.489 11.895,-8.521 0.957,-0.758 1.912,-1.516 2.82,-2.331 0.923,-0.798 1.851,-1.589 2.709,-2.459 l 1.313,-1.273 1.217,-1.367 c 0.856,-0.873 1.488,-1.928 2.198,-2.916 -0.726,0.978 -1.372,2.018 -2.243,2.876 m -24.095,54.543 c 2.506,1.224 4.132,1.792 5.533,3.121 0.083,0.078 0.179,0.153 0.27,0.23 -1.311,-1.476 -2.372,-3.274 -2.469,-5.046 -0.039,-0.723 0.088,-1.393 0.361,-2.012 -3.398,2.621 -5.264,2.941 -3.695,3.707 m 17.531,2.08 c 0.793,-0.807 1.407,-1.564 1.895,-2.274 -2.523,3.06 -7.298,4.193 -11.218,4.522 0.244,0.196 0.485,0.376 0.722,0.538 2.506,0.598 5.709,0.158 8.601,-2.786 m -8.115,1.18 c 4.292,-0.531 9.118,-2.133 10.438,-6.228 -1.874,-0.99 -4.723,-1.768 -7.658,-2.015 2.058,4.177 -0.244,7.121 -2.78,8.243 m 10.897,-9.539 c -0.707,-0.404 -9.389,-3.095 -14.453,0.809 l 0.069,0.1 c 1.174,-0.425 2.663,-0.653 4.409,-0.653 0.424,0 0.861,0.012 1.313,0.039 3.215,0.189 6.973,1.091 9.256,2.512 0.298,-1.592 -0.209,-2.587 -0.594,-2.807 M 96.435,398.801 c -0.433,-0.289 -3.378,0.178 -6.502,0.446 -0.273,0.398 -0.555,0.792 -0.839,1.182 4.868,-0.565 7.895,-1.26 7.341,-1.628 m -13.109,0.222 c 0.02,0.699 0.037,1.356 0.052,1.932 1.211,-0.085 2.372,-0.182 3.464,-0.286 0.352,-0.421 0.699,-0.85 1.034,-1.286 -1.776,0.077 -3.436,0.015 -4.55,-0.36 m -29.083,26.108 c 0.077,-0.876 0.693,-1.588 1.411,-2.055 0.747,-0.45 1.606,-0.727 2.491,-0.847 0.871,-0.105 1.869,-0.21 2.477,0.152 0.63,0.337 0.761,1.246 0.647,2.101 -0.101,0.871 -0.41,1.736 -0.758,2.578 -0.359,0.84 -0.811,1.65 -1.333,2.409 -0.507,0.774 -1.104,1.489 -1.821,2.098 1.638,-0.968 2.831,-2.556 3.73,-4.233 0.452,-0.846 0.794,-1.761 0.96,-2.747 0.077,-0.493 0.093,-1.014 -0.032,-1.546 -0.108,-0.463 -0.385,-0.946 -0.806,-1.253 -0.053,-0.04 -0.101,-0.089 -0.162,-0.121 -0.507,-0.294 -1.069,-0.354 -1.569,-0.347 -0.488,0.013 -0.974,0.047 -1.458,0.131 -0.472,0.09 -0.945,0.212 -1.402,0.384 -0.469,0.178 -0.92,0.409 -1.329,0.717 -0.783,0.597 -1.454,1.518 -1.454,2.55 0.006,1.018 0.498,1.927 1.166,2.582 -0.525,-0.772 -0.886,-1.683 -0.758,-2.553 M 637.886,296.789 c -2.287,-2.018 -4.859,-3.689 -7.511,-5.19 -5.325,-2.986 -10.996,-5.311 -16.736,-7.381 -10.916,-3.879 -22.158,-6.784 -33.478,-9.235 3.679,3.925 7.131,8.261 9.98,13.166 3.538,6.063 6.069,13.215 6.431,20.675 0.418,7.457 -1.386,14.814 -4.352,21.129 -1.468,3.186 -3.227,6.147 -5.15,8.92 -1.922,2.773 -3.976,5.403 -6.173,7.844 -2.175,2.465 -4.455,4.789 -6.807,6.995 l -1.769,1.65 c -0.73,0.636 -1.544,1.343 -2.323,1.882 -1.579,1.156 -3.178,2.08 -4.785,2.878 -3.213,1.607 -6.46,2.753 -9.735,3.624 -3.275,0.873 -6.578,1.477 -9.901,1.844 -6.641,0.72 -13.405,0.543 -20.102,-0.945 -3.341,-0.749 -6.662,-1.843 -9.847,-3.397 -3.172,-1.557 -6.232,-3.56 -8.845,-6.132 -5.222,-5.156 -8.287,-11.595 -10.076,-18.061 -1.765,-6.504 -2.244,-13.151 -1.816,-19.658 0.433,-6.509 1.778,-12.915 4.01,-19.002 2.224,-6.085 5.347,-11.877 9.455,-16.952 4.091,-5.066 9.227,-9.405 15.135,-12.268 3.844,-1.912 7.988,-3.124 12.191,-3.726 -9.852,-3.364 -20.28,-5.17 -30.87,-5.601 -11.417,-0.511 -23.001,0.527 -34.457,2.533 -11.46,2.043 -22.813,5.096 -33.934,8.91 -9.429,3.234 -18.699,7.015 -27.728,11.256 7.559,10.383 10.447,24.349 4.728,43.279 -18.487,61.202 -64.388,98.176 -110.288,112.65 -45.901,14.472 -70.364,-4.16 -94.909,-2.83 -17.452,1.636 -16.403,10.899 -23.683,12.673 -1.25,-1.14 -10.623,-18.858 -22.509,-17.689 17.744,1.103 31.349,39.078 10.545,40.048 -20.804,0.971 -21.616,-20.88 -18.099,-31.414 -3.016,1.56 -5.409,14.147 -1.469,19.268 -0.767,0.183 -1.62,0.361 -2.529,0.531 1.125,4.682 1.157,16.835 -8.588,15.707 -10.031,-1.163 -15.258,-11.22 -16.496,-13.674 -13.35,-0.007 -26.452,-1.769 -29.689,-6.853 -0.47,-1.216 -7.513,-4.729 -15.85,-8.54 -0.284,2.819 -0.452,5.651 -0.461,8.484 0.015,3.763 0.268,7.555 1.214,11.204 0.472,1.819 1.114,3.604 2.043,5.246 0.925,1.637 2.165,3.123 3.732,4.207 -1.61,-1.017 -2.93,-2.464 -3.937,-4.084 -1.013,-1.625 -1.741,-3.411 -2.299,-5.24 -1.116,-3.667 -1.532,-7.501 -1.71,-11.314 -0.115,-3.029 -0.05,-6.062 0.14,-9.084 -1.723,-0.782 -3.482,-1.572 -5.246,-2.353 -0.86,1.979 -1.741,3.945 -2.657,5.901 -2.32,4.924 -4.814,9.769 -7.587,14.457 -2.767,4.685 -5.8,9.232 -9.312,13.398 -1.765,2.071 -3.651,4.047 -5.722,5.812 -2.068,1.763 -4.342,3.319 -6.855,4.36 2.481,-1.115 4.695,-2.729 6.697,-4.538 2.006,-1.816 3.819,-3.833 5.511,-5.938 3.364,-4.236 6.24,-8.837 8.851,-13.569 2.615,-4.733 4.95,-9.618 7.111,-14.574 0.855,-1.974 1.677,-3.966 2.476,-5.965 -0.937,-0.412 -1.868,-0.822 -2.789,-1.225 -0.994,1.848 -2.017,3.675 -3.1,5.471 -1.803,2.956 -3.716,5.848 -5.83,8.593 -2.106,2.745 -4.401,5.367 -7.015,7.644 -2.612,2.229 -5.611,4.247 -9.044,4.823 3.398,-0.734 6.249,-2.864 8.723,-5.178 2.472,-2.362 4.613,-5.05 6.565,-7.853 1.959,-2.804 3.716,-5.745 5.356,-8.744 0.97,-1.787 1.897,-3.605 2.776,-5.438 -1.12,-0.488 -2.211,-0.959 -3.274,-1.417 -1.206,1.204 -2.422,2.396 -3.664,3.567 -2.883,2.696 -5.854,5.301 -8.967,7.732 -3.112,2.422 -6.353,4.708 -9.834,6.58 -3.455,1.833 -7.247,3.448 -11.22,3.331 3.969,-0.046 7.638,-1.796 10.985,-3.748 3.366,-1.989 6.481,-4.381 9.466,-6.906 2.983,-2.53 5.821,-5.23 8.567,-8.014 1.037,-1.06 2.051,-2.146 3.062,-3.234 -1.281,-0.551 -2.493,-1.07 -3.619,-1.551 -2.327,1.711 -4.717,3.31 -7.185,4.807 -4.006,2.425 -8.209,4.524 -12.563,6.236 -4.363,1.687 -8.9,2.95 -13.537,3.543 -2.317,0.292 -4.655,0.388 -6.983,0.326 -2.331,-0.091 -4.643,-0.408 -6.916,-0.889 2.29,0.403 4.601,0.639 6.92,0.65 2.316,-0.019 4.628,-0.192 6.912,-0.561 4.567,-0.744 9,-2.143 13.243,-3.954 4.234,-1.836 8.302,-4.045 12.162,-6.567 2.098,-1.37 4.152,-2.83 6.139,-4.363 -1.229,-0.525 -2.296,-0.979 -3.18,-1.357 -2.939,1.771 -5.956,3.227 -9.077,4.512 -3.315,1.35 -6.731,2.441 -10.203,3.267 -3.466,0.86 -7.018,1.341 -10.571,1.529 l -2.666,0.092 -2.665,-0.109 -1.329,-0.059 -1.322,-0.168 -2.638,-0.334 2.649,0.215 1.321,0.108 1.327,-0.001 2.65,-0.011 2.64,-0.21 c 3.507,-0.344 6.987,-0.977 10.362,-1.977 3.381,-0.967 6.686,-2.189 9.874,-3.657 2.602,-1.207 5.165,-2.577 7.567,-4.094 -0.325,-0.143 -0.523,-0.234 -0.562,-0.26 -0.444,-1.227 -0.768,-2.39 -0.983,-3.496 -1.331,0.522 -2.668,0.971 -4.036,1.369 -2.079,0.595 -4.199,1.037 -6.335,1.321 -2.135,0.307 -4.301,0.344 -6.442,0.239 -2.147,-0.102 -4.256,-0.547 -6.302,-1.126 2.088,0.426 4.197,0.706 6.314,0.648 2.111,-0.054 4.214,-0.25 6.272,-0.704 2.057,-0.432 4.081,-1.015 6.048,-1.741 1.434,-0.534 2.868,-1.144 4.227,-1.821 -0.096,-1.069 -0.085,-2.079 0.023,-3.037 -2.347,0.175 -4.666,0.206 -7.003,0.139 -2.997,-0.095 -5.985,-0.39 -8.936,-0.898 -2.946,-0.553 -5.84,-1.356 -8.622,-2.442 -2.762,-1.148 -5.357,-2.656 -7.685,-4.499 2.428,1.718 5.075,3.065 7.854,4.051 2.801,0.924 5.683,1.556 8.597,1.945 2.922,0.342 5.863,0.473 8.797,0.41 2.457,-0.061 4.938,-0.245 7.35,-0.581 0.139,-0.533 0.303,-1.051 0.503,-1.55 -3.191,-0.306 -6.362,-0.803 -9.477,-1.561 -3.292,-0.817 -6.538,-1.904 -9.54,-3.497 -3.008,-1.556 -5.745,-3.697 -7.773,-6.392 2.155,2.597 4.956,4.571 7.987,5.964 3.024,1.426 6.263,2.342 9.532,2.991 3.265,0.632 6.579,0.985 9.899,1.121 0.451,-0.845 0.986,-1.642 1.592,-2.398 -0.496,-0.171 -0.993,-0.337 -1.486,-0.517 -3.184,-1.162 -6.323,-2.451 -9.345,-3.986 -3.014,-1.54 -5.976,-3.203 -8.69,-5.228 -2.707,-2.023 -5.227,-4.316 -7.27,-6.999 2.169,2.585 4.774,4.734 7.544,6.608 2.777,1.873 5.782,3.376 8.824,4.755 3.049,1.371 6.206,2.494 9.392,3.49 0.708,0.222 1.419,0.428 2.131,0.631 0.915,-0.957 1.938,-1.848 3.04,-2.688 -1.379,-1.069 -2.731,-2.167 -4.054,-3.308 -3.164,-2.752 -6.129,-5.726 -8.853,-8.907 -2.712,-3.194 -5.081,-6.667 -7.114,-10.313 -1.997,-3.68 -3.422,-7.631 -4.391,-11.675 1.125,4.008 2.692,7.872 4.808,11.44 2.153,3.535 4.621,6.87 7.416,9.918 2.806,3.031 5.839,5.849 9.053,8.436 1.471,1.175 2.985,2.311 4.527,3.399 0.516,-0.356 1.04,-0.706 1.577,-1.046 -1.086,-1.71 -2.15,-3.43 -3.184,-5.17 -1.675,-2.834 -3.29,-5.701 -4.787,-8.631 -1.495,-2.93 -2.933,-5.891 -4.146,-8.949 -1.213,-3.054 -2.298,-6.172 -2.92,-9.397 0.777,3.19 2.007,6.235 3.359,9.207 1.35,2.977 2.922,5.848 4.546,8.681 1.627,2.834 3.368,5.6 5.163,8.327 1.12,1.692 2.272,3.365 3.441,5.021 0.97,-0.581 1.96,-1.143 2.95,-1.696 -0.881,-1.871 -1.619,-3.787 -2.291,-5.74 -1.216,-3.63 -2.056,-7.364 -2.648,-11.121 -0.242,-1.889 -0.517,-3.77 -0.613,-5.668 -0.182,-1.892 -0.195,-3.791 -0.228,-5.686 -0.054,-1.894 0.104,-3.789 0.144,-5.679 0.131,-1.889 0.334,-3.771 0.497,-5.653 -0.084,1.889 -0.207,3.775 -0.257,5.661 0.038,1.889 -0.04,3.777 0.095,5.659 0.112,1.881 0.202,3.763 0.463,5.63 0.174,1.874 0.525,3.723 0.841,5.574 0.74,3.681 1.721,7.309 3.057,10.798 0.709,1.832 1.517,3.657 2.426,5.402 1.452,-0.801 2.889,-1.591 4.256,-2.392 l -0.627,-6.89 c -0.404,-4.8 -0.733,-9.608 -0.929,-14.424 -0.193,-4.812 -0.26,-9.635 -0.064,-14.45 0.218,-4.806 0.622,-9.645 1.87,-14.299 -1.092,4.691 -1.331,9.518 -1.393,14.309 -0.036,4.801 0.191,9.6 0.542,14.387 0.354,4.787 0.84,9.564 1.401,14.332 l 0.759,6.093 c 0.823,-0.514 1.607,-1.04 2.342,-1.578 1.539,-3.151 3.04,-6.325 4.476,-9.527 2.045,-4.566 3.984,-9.183 5.818,-13.841 1.814,-4.666 3.496,-9.382 5.035,-14.149 1.488,-4.781 2.809,-9.617 3.839,-14.528 -0.873,4.939 -2.042,9.826 -3.381,14.665 -1.39,4.824 -2.927,9.608 -4.597,14.346 -1.691,4.73 -3.489,9.422 -5.395,14.073 -0.051,0.124 -0.106,0.247 -0.158,0.372 l 0.72,-1.244 c 0,0 1.461,-1.379 1.965,-2.135 0.224,-0.334 0.388,1.91 0.5,4.514 1.778,-1.112 5.202,-2.056 8.907,-3.028 2.479,-4.423 4.445,-9.151 6.086,-13.979 1.844,-5.441 3.278,-11.029 4.383,-16.682 1.095,-5.656 1.88,-11.381 2.203,-17.142 -0.163,5.769 -0.791,11.525 -1.732,17.226 -0.951,5.702 -2.236,11.354 -3.943,16.894 -1.399,4.515 -3.083,8.963 -5.213,13.215 2.676,-0.703 5.383,-1.433 7.63,-2.266 1.538,-0.569 4.089,-1.481 7.203,-2.612 -3.77,4.806 -8.014,9.236 -12.658,13.202 -3.058,2.623 -6.284,5.044 -9.642,7.264 -3.353,2.211 -6.855,4.259 -10.478,5.911 l -0.023,0.011 c -0.24,0.109 -0.345,0.393 -0.235,0.633 0.108,0.24 0.392,0.346 0.632,0.236 l 0.004,-0.001 c 3.717,-1.74 7.194,-3.825 10.565,-6.095 3.365,-2.273 6.592,-4.744 9.647,-7.415 4.844,-4.223 9.239,-8.954 13.106,-14.08 12.379,-4.505 32.619,-12.124 36.394,-16.224 0,0 -22.26,10.849 -21.427,7.104 0.81,-2.755 29.845,-25.975 49.804,-53.048 -0.316,-9.041 -0.622,-23.085 0.327,-27.198 1.434,-6.214 -0.478,-19.602 -2.152,-21.276 -1.674,-1.674 -9.801,-7.889 -11.237,-8.127 -1.434,-0.239 -13.631,-4.071 -13.631,-4.071 l 0.968,-0.657 c 0,0 4.683,-0.069 8.2,0.161 -2.24,-1.256 -5.98,-3.268 -6.295,-3.404 -0.418,-0.178 0.558,-0.676 1.276,-0.436 0.718,0.239 3.148,0.756 4.283,0.636 1.135,-0.118 -0.059,-0.059 2.51,0 1.142,0.027 3.114,0.715 5.331,1.482 -1.154,-1.162 -2.201,-2.243 -2.349,-2.497 -0.352,-0.598 -0.472,-1.017 1.261,-0.478 1.733,0.538 0.36,0.725 2.69,1.259 1.999,0.457 11.066,3.103 15.57,4.459 2.754,0.673 4.969,1.234 4.969,1.234 0,0 3.905,2.312 4.383,7.333 0.203,2.125 1.737,10.09 3.491,18.542 0.029,-0.123 0.067,-0.253 0.095,-0.374 2.63,-11.238 0.717,-26.298 0,-31.078 -0.467,-3.116 -4.767,-7.065 -9.129,-9.341 -3.879,-0.341 -14.213,-1.283 -16.75,-1.478 -3.107,-0.239 -6.095,-0.716 -6.335,-0.777 -0.239,-0.059 1.494,-0.897 1.494,-0.897 0,0 2.183,-0.071 5.095,-0.598 -0.595,-0.257 -1.18,-0.519 -1.747,-0.775 -2.637,-1.194 -7.052,-0.818 -7.052,-1.546 0,-0.725 4.422,-1.563 5.856,-1.204 1.395,0.349 2.584,0.87 10.014,-0.012 -2.502,-1.166 -5.141,-2.525 -5.42,-2.894 -0.512,-0.673 2.533,-0.33 2.533,-0.33 0,0 4.928,0.129 6.764,0.379 1.835,0.251 7.761,1.921 12.663,3.123 l -0.524,0.067 c 1.398,0.106 2.822,0.172 4.332,0.146 6.663,-0.12 8.128,2.908 8.965,3.386 0.836,0.479 3.622,4.655 3.346,8.209 -0.716,9.204 12.512,25.499 16.017,31.078 3.507,5.577 0.718,-2.034 0.718,-2.034 0,0 24.065,-9.359 45.937,-8.103 0.015,-0.021 0.028,-0.044 0.042,-0.064 0.421,-0.584 0.855,-1.12 1.293,-1.637 l -17.748,-1.072 c -3.167,-0.458 -6.361,-1.947 -11.939,-2.266 -5.577,-0.317 -7.226,0.513 -9.297,-0.284 -2.073,-0.797 -1.674,-0.778 -0.958,-0.907 0.718,-0.128 5.081,-0.687 7.721,-0.687 1.26,0 3.156,-0.036 5.086,-0.083 -1.276,-0.5 -2.408,-0.888 -3.163,-1.033 -3.109,-0.597 -1.515,-1.831 -1.515,-1.831 0,0 4.481,0.128 9.372,0.183 -2.438,-0.705 -3.926,-1.261 -5.168,-2.056 -1.868,-1.199 -0.994,-1.543 -0.265,-1.526 0.728,0.018 5.079,1.199 7.7,0.883 2.416,-0.293 9.175,1.041 13.278,1.859 0.794,-0.034 1.876,-0.079 3.373,-0.141 8.487,-0.36 17.543,0.372 18.255,0.239 0.284,-0.054 0.97,0.087 1.694,0.275 6.008,-0.831 10.442,-0.323 9.694,-4.187 -1.294,-6.691 -12.331,-8.828 -21.326,-10.023 -5.43,0.607 -12.418,1.383 -12.637,1.383 -0.359,0 -2.33,-0.358 -4.84,-0.238 -2.511,0.119 -3.108,-0.255 -1.853,-0.545 1.162,-0.27 3.035,-1.133 4.446,-1.889 -2.395,-0.373 -1.883,-0.355 -6.881,-0.615 -6.136,-0.318 -9.184,-0.577 -8.467,-1.295 0.718,-0.717 2.869,-0.478 3.427,-0.478 0.435,0 8.932,-0.632 12.875,-0.836 -1.909,-0.57 -3.652,-0.984 -4.937,-1.096 -4.702,-0.413 -2.753,-1.394 2.9,-1.733 3.156,-0.189 6.065,0.454 11.394,0.717 0.837,0.041 3.211,-0.493 4.091,-0.443 14.741,0.86 35.355,3.078 55.277,5.807 13.683,1.875 37.076,4.988 55.805,14.366 2.014,-0.936 4.032,-1.857 6.062,-2.748 11.706,-5.12 23.686,-9.51 35.947,-13.105 12.256,-3.59 24.798,-6.37 37.579,-8.052 12.779,-1.646 25.818,-2.238 38.882,-1.061 13.043,1.128 26.124,4.077 38.402,9.28 11.857,5.078 22.861,12.314 32.035,21.291 0.795,0.194 1.594,0.371 2.388,0.571 11.93,3.001 23.764,6.484 35.209,11.04 5.705,2.304 11.335,4.86 16.597,8.079 2.62,1.616 5.157,3.401 7.393,5.531 2.202,2.111 4.218,4.67 4.805,7.72 -0.702,-3.022 -2.786,-5.462 -5.038,-7.466"
           style="fill:#110f0d;fill-opacity:1;fill-rule:nonzero;stroke:none"
           id="path835"
           inkscape:connector-curvature="0" /></g></g></g></svg>