<?xml version="1.0" encoding="utf-8"?>
<svg version="1.1" id="Layer_1" xmlns="http://www.w3.org/2000/svg" xmlns:xlink="http://www.w3.org/1999/xlink" x="0px" y="0px"
	 viewBox="0 0 1513.021 1660" enable-background="new 0 0 1513.021 1660" xml:space="preserve">
<g>
	<path d="M1357.269,61.742c51.043,51.341,62.543,94.579,77.233,169.425c21.832,118.741-56.553,91.887-61.833,158.842
		c-3.255,35.713,15.764,75.684,3.192,110.95c-7.453,20.837-23.956,64.159-41.725,77.492c-12.009,9.091-18.796-2.502-22.45-6.95
		c-106.158-134.212-234.014-275.113-285.592-340.275c-41.219-51.523,71.279-107.97,128.6-141.358
		C1220.935,51.988,1286.379-7.496,1357.269,61.742z"/>
	<path d="M336.552,84.133c57.506,35.145,155.045,81.093,154.525,128.358c0.114,15.636-5.237,20.905-77.2,104.883
		C174.253,596.386,192.912,587.243,182.335,586.267c-23.128-2.373-51.617-81.039-53.333-95.358
		c-4.408-36.496,12.164-71.006,5.55-105.008c-7.285-34.242-40.407-44.138-56.233-71.892c-18.431-35.074-1.431-91.121,5.3-122.15
		c6.65-28.375,15.017-57.108,31.767-81.342C187.489,9.184,231.141,17.468,336.552,84.133z"/>
	<path d="M749.977,208.233c-1.524,0.264-50.237,3.45-105.133,14.383c-67.769,14.13-116.168,28.532-188.05,112.7
		c-62.526,73.256-109.617,164.097-179.442,230.533c-30.404,30.218-82.226,37.784-101.458,73.542
		c-34.336,64.992-38.499,126.538-23.267,197.158c15.783,73.303,21.282,119.082,339.708,553.867
		c-68.628,3.318-158.014-1.345-224.817-20.475c-75.941-21.736-129.48-76.169-166.375-142.117
		c-74.429-132.748-117.672-418.593-7.442-558.167c28.477-37.206,65.742-43.657,95.175-71.467
		c121.18-114.1,263.464-323.235,312.708-370.608C532.279,197.475,737.201,206.868,749.977,208.233z"/>
	<path d="M988.185,217.533c21.666,5.882,22.09,6.648,73.35,69.967c278.386,353.518,262.506,311.637,324.125,352.533
		c167.383,109.853,117.896,603.727-90.583,711.85c-72.076,37.555-200.288,44.165-274.367,39.658
		c321.499-438.129,320.368-483.673,331.458-520.9c21.065-74.769,25.385-142.479-6.658-212.908
		c-9.996-21.157-13.663-33.401-50.033-53.425c-41.909-22.818-42.311-19.69-70.917-48.183
		c-91.192-93.529-166.15-263.49-277.492-310.85c-67.888-29.225-175.94-34.57-183.192-36.233
		C807.587,205.804,939.864,204.255,988.185,217.533z"/>
	<path d="M959.252,273.95c42.479,23.309,120.004,138.78,213.217,247.617c67.422,78.227,72.028,73.866,106.683,95.825
		c29.396,18.8,33.772,29.884,40.833,46.65c27.581,67.286,18.806,149.402-0.3,219.917
		c-27.696,109.921-178.324,294.054-194.717,311.867c13.106-32.385,34.202-93.562,26.583-127.5
		c-21.757-100.319-148.086-185.228-158.475-256.492c-6.251-47.831,35.717-32.447,59.35-36.85
		c7.362-1.402,62.929-31.295,69.25-64.158c4.669-24.885-13.502-27.62-33.958-40.417c-14.792-9.075-29.65-18.683-46.533-23.408
		c-26.848-7.598-60.589,1.229-80.867,16.808c-13.289,10.035-37.155,43.886-46.65,57.525c-5.503,7.653-4.263,7.609-8.75,4.417
		c-16.782-17.133-53.324-89.712-90-145.867c-56.741-86.106-61.802-97.944-203.858,123.808c-5.183,7.508-9.517,15.775-16.092,22.208
		c-29.043-46.077-60.786-112.234-169.308-60.1c-16.262,7.95-42.053,10.414-46.1,26.2c-5.479,24.383,11.648,46.236,30.458,62.825
		c44.172,37.836,52.636,30.18,74.042,27.7c21.309-2.416,33.327,2.862,30.092,27.783C510.973,829.169,498.22,854.14,488.01,869
		c-40.045,48.999-131.561,172.935-130.075,235.983c1.489,40.385,21.83,88.688,26.792,102.575
		c-3.155-5.013,7.08,12.489-181.358-307.733c-52.502-87.277-58.167-203.363-6.4-258.542c6.803-7.431,3.999-4.738,107.633-84.842
		c73.81-55.915,203.829-261.334,244.642-282.067c32.85-16.058,67.308-29.242,103.192-36.65
		C699.881,228.073,852.852,212.775,959.252,273.95z"/>
	<path d="M863.094,684.233c48.747,83.665,40.419,74.498,44.892,95.25c34.928,199.742,11.821,289.753,1.1,300.583
		c-14.81,12.653-47.285-3.1-66.733-3.7c-44.003-0.161-64.241,94.602-120.292,43.917c-18.123-16.568-33.552-40.563-55.667-44.283
		c-20.074-4.063-51.92,30.101-69.075,1.492c-33.775-55.31,1.021-312.411,8.258-325.042
		c26.768-47.948,88.911-155.429,129.775-191.925C751.275,547.336,770.011,525.862,863.094,684.233z"/>
	<path d="M1046.51,659.892c11.843,0.281,22.044,9.58,38.45,14.967c18.795,7,28.213,11.169,25.992,30.608
		c-3.572,24.629-31.639,45.558-52.708,58.792c-25.655,16.431-85.511-17.484-74.367,42.475c4.033,20.008,12.858,38.658,22.558,56.475
		c-0.425,0.342-1.267,1.033-1.683,1.383c-13.453-14.436-57.439-66.874-79.583-109.075c-8.391-16.729-11.205-21.616-2.417-33.408
		c20.771-26.716,36.119,4.796,53.767,6.583c14.792,0.6,30.025-4.308,41.15-14.2C1033.608,700.874,1019.173,659.052,1046.51,659.892z
		"/>
	<path d="M437.369,670.858c7.617-3.692,15.35-8.625,24.158-8.075c21.491,0.47,15.728,32.758,22.242,47.475
		c4.006,9.503,23.557,22.219,46.067,21.258c14.686-2.588,26.705-22.094,41.708-21.25c9.73-0.041,21.156,15.661,17,24.225
		c-20.212,41.042-78.404,122.539-86.767,132.942c-0.383-0.392-1.142-1.175-1.525-1.567c11.374-20.695,33.388-64.1,20.133-83.883
		c-9.689-15.219-36.891-0.944-57.2-2.483c-26.277-1.546-101.24-73.904-52.833-97.367
		C419.235,678.083,428.819,675.667,437.369,670.858z"/>
	<path d="M593.127,772.467c-68.892,427.921,20.615,369.941,64.208,406.733c26.7,22.964,17.079,67.047,61.683,75.85
		c9.5,1.875,19.2,2.233,28.858,2.583c0.7,21.608,1.675,43.225,2.267,64.842c-183.75,123.762-248.411,78.765-334.808-110.5
		c-38.405-84.453-74.185-125.196,52.992-296.008C507.476,863.577,558.604,806.179,593.127,772.467z"/>
	<path d="M916.485,774.175c70.697,71.236,197.846,219.604,211.633,319.3c4.106,35.745-12.629,70.962-27.767,103.717
		c-72.025,153.487-119.603,275.53-342.8,125.983c0.003-3.99,0.187-59.852,0.592-65.292c34.99,0.214,45-5.669,52.758-13.5
		c18.392-18.569,22.749-50.114,44.025-65.975c41.181-31.812,132.905-2.056,62.808-395.417
		C917.202,780.067,916.735,777.133,916.485,774.175z"/>
	<path d="M679.035,1091.633c38.895,22.881,53.249,98.768,117.933,27.967c22.192-24.141,31.035-33.669,59.608-32.55
		c64.013,3.968,46.55,58.022,28.233,61.433c-15.314,2.409-32.895-9.643-44.367-1.242c-22.72,15.703-17.791,53.26-30.408,78.825
		c-11.634,23.794-37.304,24.419-63.508,24.167c-28.519-1.041-48.001-5.714-56.1-33.408c-6.598-24.181-4.702-50.718-19.358-65.55
		c-11.485-11.812-23.651-4.532-38.783-2.483c-28.967,4.82-31.177-29.963-19.817-43.675
		C627.302,1086.783,661.234,1081.178,679.035,1091.633z"/>
	<path d="M752.46,1332.442c6.721,2.771,102.824,69.391,154.05,67.8c26.275-0.8,52.067-6.608,77.508-12.792
		c-4.085,41.017-15.547,104.623-36.092,143.967c-16.179,31.754-67.006,74.597-137.583,91.608
		c-70.413,18.24-161.985-0.505-223.8-55.567c-18.656-17.571-29.295-27.74-42.233-68.575c-11.046-36.376-17.684-84.113-18.967-109.8
		c73.229,20.612,87.694,18.478,126.375,1.933C701.891,1368.823,746.415,1335.806,752.46,1332.442z"/>
</g>
</svg>
